<svg height="190.894416" viewBox="0 0 31.099565 11.280638" width="523.849792" xmlns="http://www.w3.org/2000/svg" xmlns:xlink="http://www.w3.org/1999/xlink"><clipPath id="a"><path d="m42 660h36v14h-36zm0 0"/></clipPath><clipPath id="b"><path d="m47.992188 666.91406c17.195312 16.84766 29.066406-1.73828 29.230468-1.8789-9.707031 5.22265-20.765625 6.23046-34.386718-4.51172 1.773437 2.52343 3.464843 4.49609 5.15625 6.39062"/></clipPath><linearGradient id="c" gradientTransform="matrix(-16.966278 -20.219622 20.219622 -16.966278 68.700218 673.27816)" gradientUnits="userSpaceOnUse" x1="-.511796" x2=".999994" y1="0" y2="0"><stop offset="0" stop-color="#bfdf19"/><stop offset=".25" stop-color="#bfdf19"/><stop offset=".375" stop-color="#bfdf19"/><stop offset=".4375" stop-color="#bfdf19"/><stop offset=".453125" stop-color="#bfdf19"/><stop offset=".46875" stop-color="#bede19"/><stop offset=".476563" stop-color="#bdde19"/><stop offset=".484375" stop-color="#bcdd19"/><stop offset=".492188" stop-color="#bbdd19"/><stop offset=".5" stop-color="#badc19"/><stop offset=".507813" stop-color="#b9db19"/><stop offset=".515625" stop-color="#b8db19"/><stop offset=".523438" stop-color="#b7da19"/><stop offset=".53125" stop-color="#b6da1a"/><stop offset=".539063" stop-color="#b5d91a"/><stop offset=".546875" stop-color="#b4d81a"/><stop offset=".554688" stop-color="#b3d81a"/><stop offset=".5625" stop-color="#b2d71a"/><stop offset=".570313" stop-color="#b1d61a"/><stop offset=".578125" stop-color="#b0d51a"/><stop offset=".585938" stop-color="#aed51a"/><stop offset=".59375" stop-color="#add41a"/><stop offset=".601563" stop-color="#acd31b"/><stop offset=".609375" stop-color="#abd21b"/><stop offset=".617188" stop-color="#aad21b"/><stop offset=".625" stop-color="#a8d11b"/><stop offset=".632813" stop-color="#a7d01b"/><stop offset=".640625" stop-color="#a6cf1b"/><stop offset=".648438" stop-color="#a5ce1b"/><stop offset=".65625" stop-color="#a3cd1b"/><stop offset=".664063" stop-color="#a2cd1c"/><stop offset=".671875" stop-color="#a1cc1c"/><stop offset=".679688" stop-color="#9fcb1c"/><stop offset=".6875" stop-color="#9eca1c"/><stop offset=".695313" stop-color="#9dc91c"/><stop offset=".703125" stop-color="#9bc81c"/><stop offset=".710938" stop-color="#9ac71c"/><stop offset=".71875" stop-color="#98c71c"/><stop offset=".722656" stop-color="#97c61d"/><stop offset=".726563" stop-color="#96c51d"/><stop offset=".730469" stop-color="#96c51d"/><stop offset=".734375" stop-color="#95c41d"/><stop offset=".738281" stop-color="#94c41d"/><stop offset=".742188" stop-color="#94c31d"/><stop offset=".746094" stop-color="#93c31d"/><stop offset=".75" stop-color="#92c21d"/><stop offset=".753906" stop-color="#92c21d"/><stop offset=".757812" stop-color="#91c21d"/><stop offset=".761719" stop-color="#90c11d"/><stop offset=".765625" stop-color="#8fc11d"/><stop offset=".769531" stop-color="#8fc01d"/><stop offset=".773438" stop-color="#8ec01d"/><stop offset=".777344" stop-color="#8dbf1d"/><stop offset=".78125" stop-color="#8dbf1d"/><stop offset=".785156" stop-color="#8cbe1e"/><stop offset=".789063" stop-color="#8bbe1e"/><stop offset=".792969" stop-color="#8abd1e"/><stop offset=".796875" stop-color="#8abd1e"/><stop offset=".800781" stop-color="#89bc1e"/><stop offset=".804688" stop-color="#88bc1e"/><stop offset=".808594" stop-color="#88bb1e"/><stop offset=".8125" stop-color="#87bb1e"/><stop offset=".816406" stop-color="#86ba1e"/><stop offset=".820313" stop-color="#85ba1e"/><stop offset=".824219" stop-color="#85b91e"/><stop offset=".828125" stop-color="#84b91e"/><stop offset=".832031" stop-color="#83b81e"/><stop offset=".835938" stop-color="#83b81e"/><stop offset=".839844" stop-color="#82b71e"/><stop offset=".84375" stop-color="#81b71e"/><stop offset=".847656" stop-color="#80b71e"/><stop offset=".851563" stop-color="#80b61e"/><stop offset=".855469" stop-color="#7fb61f"/><stop offset=".859375" stop-color="#7eb51f"/><stop offset=".863281" stop-color="#7db51f"/><stop offset=".867188" stop-color="#7db41f"/><stop offset=".871094" stop-color="#7cb41f"/><stop offset=".875" stop-color="#7bb31f"/><stop offset=".878906" stop-color="#7bb31f"/><stop offset=".882812" stop-color="#7ab21f"/><stop offset=".886719" stop-color="#79b21f"/><stop offset=".890625" stop-color="#78b11f"/><stop offset=".894531" stop-color="#78b11f"/><stop offset=".898438" stop-color="#77b01f"/><stop offset=".902344" stop-color="#76b01f"/><stop offset=".90625" stop-color="#75af1f"/><stop offset=".910156" stop-color="#75af1f"/><stop offset=".914063" stop-color="#74ae1f"/><stop offset=".917969" stop-color="#73ae1f"/><stop offset=".921875" stop-color="#73ad1f"/><stop offset=".925781" stop-color="#72ad1f"/><stop offset=".929688" stop-color="#71ac20"/><stop offset=".933594" stop-color="#70ac20"/><stop offset=".9375" stop-color="#70ab20"/><stop offset=".941406" stop-color="#6fab20"/><stop offset=".945313" stop-color="#6eaa20"/><stop offset=".949219" stop-color="#6daa20"/><stop offset=".953125" stop-color="#6da920"/><stop offset=".957031" stop-color="#6ca920"/><stop offset=".960938" stop-color="#6ba820"/><stop offset=".964844" stop-color="#6ba720"/><stop offset=".96875" stop-color="#6aa720"/><stop offset="1" stop-color="#69a720"/></linearGradient><clipPath id="d"><path d="m34 649h64v19h-64zm0 0"/></clipPath><clipPath id="e"><path d="m78.550781 654.625c-11.589843 4.54297-25.800781 9.08594-44.011718-2.15625 6.476562 5.43359 26.710937 25.78516 49.65625 6.42969 4.585937-3.86719 8.550781-6.84766 13.632812-8.88282-.875-.17968-1.765625-.26562-2.675781-.26562-4.921875 0-10.386719 2.4375-16.601563 4.875"/></clipPath><linearGradient id="f" gradientTransform="matrix(-21.80064 37.759815 37.759815 21.80064 74.925331 636.10279)" gradientUnits="userSpaceOnUse" x1=".008437" x2="1.300376" y1="0" y2="0"><stop offset="0" stop-color="#69a620"/><stop offset=".125" stop-color="#69a620"/><stop offset=".140625" stop-color="#69a620"/><stop offset=".148438" stop-color="#69a620"/><stop offset=".152344" stop-color="#6aa720"/><stop offset=".15625" stop-color="#6ba820"/><stop offset=".160156" stop-color="#6ca820"/><stop offset=".164063" stop-color="#6da920"/><stop offset=".167969" stop-color="#6eaa20"/><stop offset=".171875" stop-color="#6faa20"/><stop offset=".175781" stop-color="#70ab20"/><stop offset=".179688" stop-color="#70ac20"/><stop offset=".183594" stop-color="#71ac20"/><stop offset=".1875" stop-color="#72ad1f"/><stop offset=".191406" stop-color="#73ae1f"/><stop offset=".195313" stop-color="#74ae1f"/><stop offset=".199219" stop-color="#75af1f"/><stop offset=".203125" stop-color="#76af1f"/><stop offset=".207031" stop-color="#77b01f"/><stop offset=".210938" stop-color="#78b11f"/><stop offset=".214844" stop-color="#79b11f"/><stop offset=".21875" stop-color="#7ab21f"/><stop offset=".222656" stop-color="#7bb31f"/><stop offset=".226563" stop-color="#7cb31f"/><stop offset=".230469" stop-color="#7db41f"/><stop offset=".234375" stop-color="#7eb51f"/><stop offset=".238281" stop-color="#7eb51f"/><stop offset=".242188" stop-color="#7fb61f"/><stop offset=".246094" stop-color="#80b61e"/><stop offset=".25" stop-color="#81b71e"/><stop offset=".253906" stop-color="#82b81e"/><stop offset=".257813" stop-color="#83b81e"/><stop offset=".261719" stop-color="#84b91e"/><stop offset=".265625" stop-color="#85ba1e"/><stop offset=".269531" stop-color="#86ba1e"/><stop offset=".273438" stop-color="#87bb1e"/><stop offset=".277344" stop-color="#88bb1e"/><stop offset=".28125" stop-color="#89bc1e"/><stop offset=".285156" stop-color="#89bd1e"/><stop offset=".289063" stop-color="#8abd1e"/><stop offset=".292969" stop-color="#8bbe1e"/><stop offset=".296875" stop-color="#8cbe1d"/><stop offset=".300781" stop-color="#8dbf1d"/><stop offset=".304688" stop-color="#8ec01d"/><stop offset=".308594" stop-color="#8fc01d"/><stop offset=".3125" stop-color="#90c11d"/><stop offset=".316406" stop-color="#91c11d"/><stop offset=".320313" stop-color="#92c21d"/><stop offset=".324219" stop-color="#93c31d"/><stop offset=".328125" stop-color="#93c31d"/><stop offset=".332031" stop-color="#94c41d"/><stop offset=".335938" stop-color="#95c41d"/><stop offset=".339844" stop-color="#96c51d"/><stop offset=".34375" stop-color="#97c61d"/><stop offset=".347656" stop-color="#98c61c"/><stop offset=".351563" stop-color="#99c71c"/><stop offset=".355469" stop-color="#9ac71c"/><stop offset=".359375" stop-color="#9ac81c"/><stop offset=".363281" stop-color="#9bc81c"/><stop offset=".367188" stop-color="#9cc91c"/><stop offset=".371094" stop-color="#9dc91c"/><stop offset=".375" stop-color="#9eca1c"/><stop offset=".378906" stop-color="#9fcb1c"/><stop offset=".382813" stop-color="#a0cb1c"/><stop offset=".386719" stop-color="#a0cc1c"/><stop offset=".390625" stop-color="#a1cc1c"/><stop offset=".394531" stop-color="#a2cd1c"/><stop offset=".398437" stop-color="#a3cd1b"/><stop offset=".402344" stop-color="#a4ce1b"/><stop offset=".40625" stop-color="#a5ce1b"/><stop offset=".410156" stop-color="#a5cf1b"/><stop offset=".414063" stop-color="#a6cf1b"/><stop offset=".417969" stop-color="#a7d01b"/><stop offset=".421875" stop-color="#a8d01b"/><stop offset=".425781" stop-color="#a9d11b"/><stop offset=".429687" stop-color="#a9d11b"/><stop offset=".433594" stop-color="#aad21b"/><stop offset=".4375" stop-color="#abd21b"/><stop offset=".441406" stop-color="#acd31b"/><stop offset=".445313" stop-color="#acd31b"/><stop offset=".449219" stop-color="#add41a"/><stop offset=".453125" stop-color="#aed41a"/><stop offset=".457031" stop-color="#afd51a"/><stop offset=".460937" stop-color="#afd51a"/><stop offset=".46875" stop-color="#b0d61a"/><stop offset=".476563" stop-color="#b2d71a"/><stop offset=".484375" stop-color="#b3d71a"/><stop offset=".492187" stop-color="#b4d81a"/><stop offset=".5" stop-color="#b6d91a"/><stop offset=".507813" stop-color="#b7da19"/><stop offset=".515625" stop-color="#b8db19"/><stop offset=".523438" stop-color="#b9db19"/><stop offset=".53125" stop-color="#badc19"/><stop offset=".539063" stop-color="#bbdd19"/><stop offset=".546875" stop-color="#bcdd19"/><stop offset=".554688" stop-color="#bdde19"/><stop offset=".5625" stop-color="#bedf19"/><stop offset=".625" stop-color="#bfdf19"/><stop offset=".75" stop-color="#bfdf19"/><stop offset="1" stop-color="#bfdf19"/></linearGradient><g transform="translate(-30.850137 -237.526912)"><g clip-path="url(#a)" transform="matrix(.35277778 0 0 .35277778 18.797815 8.441842)"><g clip-path="url(#b)"><path d="m57.042969 700.69531 31.621094-26.53515-25.648438-30.56641-31.621094 26.53125zm0 0" fill="url(#c)"/></g></g><g clip-path="url(#d)" transform="matrix(.35277778 0 0 .35277778 18.797815 8.441842)"><g clip-path="url(#e)"><path d="m50.363281 622.34375 59.808599 34.53516-28.164067 48.78125-59.8125-34.53125zm0 0" fill="url(#f)"/></g></g><g fill="#211e1e"><path d="m51.548271 246.15205-.804774-1.92098-.807531 1.91961zm-3.602192 1.61644 2.02985-4.58611c.141938-.31557.401009-.50712.749653-.50712h.07579c.350022 0 .598069.1888.738629.50712l2.033984 4.58611c.04134.0923.06201.17226.06201.25632 0 .34313-.261827.61874-.606337.61874-.297656 0-.49885-.17639-.613227-.44235l-.391363-.91778-2.565907.003-.406521.95636c-.107487.24942-.323839.401-.591178.401-.333486 0-.591179-.26733-.591179-.60082 0-.0909.03445-.1819.07579-.27423"/><path d="m57.490373 247.9752c-.141941-.0992-.241159-.28112-.241159-.48094 0-.3321.264583-.59118.598071-.59393.165364.003.283873.0592.366557.11851.442352.32384.923287.52503 1.491037.52503.523656-.001.839226-.2067.839226-.55121v-.0165c0-.32522-.197061-.4892-1.17409-.74001-1.172711-.29903-1.930629-.62149-1.930629-1.7818v-.0152c0-1.05558.848871-1.75562 2.039496-1.75562.706932 0 1.320158.18053 1.849325.51539.139185.0813.279742.25907.279742.50711 0 .33349-.265959.58981-.598068.59118-.124022 0-.221865-.0331-.32246-.0923-.425813-.24943-.826823-.38999-1.226453-.38999-.490583 0-.746898.22324-.746898.50849v.0138c0 .38585.249425.50987 1.255392.76619 1.182356.3073 1.847949.73449 1.847949 1.74873v.0179c0 1.15479-.881945 1.80523-2.137336 1.80523-.766191 0-1.540648-.23151-2.189702-.70004"/><path d="m54.783904 243.35739c.0014-.35967.286632-.64216.643544-.64216.355533 0 .642165.28249.642165.64216v4.64261c0 .36105-.286632.64217-.642165.64217-.356912 0-.642165-.28388-.642165-.64217zm0 0"/></g></g></svg>